<svg xmlns="http://www.w3.org/2000/svg" viewBox="0 0 48 48">
  <path fill="#EA4335" d="M24 9.5c3.54 0 6.71 1.22 9.21 3.6l6.62-6.62C34.11 4.13 29.3 2 24 2 15.16 2 7.46 7.34 4.07 15.15l7.86 6.1C13.91 14.8 18.66 9.5 24 9.5z"/>
  <path fill="#4285F4" d="M46.98 24c0-1.57-.15-3.09-.4-4.56H24v8.58h12.46c-.65 3.96-2.85 7.29-6.35 9.68l6.6 6.6c3.88-3.6 6.19-8.99 6.19-15.3z"/>
  <path fill="#FBBC04" d="M11.93 32.85c-.94-2.85-1.45-5.98-1.45-9.85s.51-7 1.45-9.85L4.07 15.15C.59 20.98.59 27.02 4.07 32.85l7.86-6.1z"/>
  <path fill="#34A853" d="M24 45.99c5.3 0 10.1-1.93 13.8-5.1l-6.6-6.6c-2.88 1.92-6.5 3.2-9.9 3.2-5.34 0-10.09-5.3-11.93-10.95l-7.86 6.1C7.46 40.66 15.16 45.99 24 45.99z"/>
</svg>